<svg height="512" viewBox="0 0 54 56" width="512" xmlns="http://www.w3.org/2000/svg">
<path d="M7 55.79h40a1 1 0 001-1V29.7a1 1 0 00-.29-.71l-20-20a1 1 0 00-1.42 0l-20 20a1 1 0 00-.29.71v25.09a1 1 0 001 1zM27 50a2 2 0 110-4 2 2 0 010 4zm7.6-7.41l-1.54 1.3a1 1 0 01-1.32 0 7 7 0 00-9.48 0 1 1 0 01-1.32 0l-1.54-1.3a1 1 0 010-1.49c4.265-4.128 11.035-4.128 15.3 0a1 1 0 01-.1 1.49zM13.19 36a19 19 0 0127.62 0 1 1 0 01-.07 1.47l-1.54 1.25a1 1 0 01-1.35 0 14.94 14.94 0 00-21.7 0 1 1 0 01-1.35 0l-1.54-1.29a1 1 0 01-.07-1.43zM8.71 15.26l4-4c.35-.36.29-.5.29-2.47a1 1 0 00-1-1H8a1 1 0 00-1 1v5.76a1 1 0 001.71.71z"/>
<path d="M27.71.5a1 1 0 00-1.42 0L.84 26a1 1 0 000 1.42l1.41 1.41a1 1 0 001.42 0l22.45-22.5a1.24 1.24 0 011.76 0l22.45 22.46a1 1 0 001.42 0l1.41-1.41a1 1 0 000-1.42z"/>
</svg>