<svg xmlns="http://www.w3.org/2000/svg" width="463.264" height="463.264">
    <path d="M395.42 82.072c-43.749-43.749-101.917-67.843-163.788-67.843S111.593 38.323 67.844 82.072C24.094 125.822 0 183.989 0 245.861c0 41.319 11.02 81.888 31.868 117.317 20.225 34.369 49.143 63.117 83.629 83.137a19.998 19.998 0 0010.066 2.719c6.925 0 13.664-3.586 17.391-10.008 5.569-9.592 2.307-21.885-7.288-27.455-58.902-34.191-95.493-97.687-95.493-165.711 0-105.57 85.888-191.458 191.458-191.458 105.571 0 191.458 85.888 191.458 191.458 0 44.625-12.084 81.852-34.948 107.654-18.607 21.002-43.59 33.047-68.539 33.047-25.002 0-53.332-13.154-63.748-47.994 40.298-8.321 70.687-44.084 70.687-86.809v-58.534a5.022 5.022 0 00-5.021-5.021h-26.867v-54.801c0-11.093-8.992-20.086-20.085-20.086-11.095 0-20.088 8.993-20.088 20.086v54.801h-45.693v-54.801c0-11.093-8.993-20.086-20.087-20.086s-20.086 8.993-20.086 20.086v54.801h-26.868a5.022 5.022 0 00-5.021 5.021v58.534c0 45.289 34.144 82.748 78.04 88.002 4.717 22.156 14.561 41.205 29.139 56.072 19.541 19.926 46.427 30.9 75.701 30.9 36.438 0 72.379-16.977 98.607-46.578 20.553-23.195 45.053-65.324 45.053-134.296-.002-61.869-24.095-120.037-67.845-163.786z"/>
</svg>