<svg height="512" width="512" xmlns="http://www.w3.org/2000/svg">
<path d="M190.038 449.77a14.999 14.999 0 01-8.745-16.714L207.704 301H166a14.991 14.991 0 01-13.345-8.159 14.953 14.953 0 011.172-15.601L303.783 67.284c4.131-5.742 11.719-7.837 18.179-5.054a14.999 14.999 0 018.745 16.714L304.296 211H346c5.61 0 10.752 3.135 13.33 8.115a15.032 15.032 0 01-1.084 15.557L208.217 444.716a15.029 15.029 0 01-18.179 5.054zM209.324 145.205l-32.313-32.313c6.738-25.122 2.256-52.104-12.612-73.916C141.255 5.007 94.849-8.88 57.217 5.827c-4.688 1.831-8.145 5.918-9.199 10.854a15.02 15.02 0 004.014 13.652L79.395 57.99c5.771 5.771 5.908 15.185 0 21.094-5.654 5.654-15.381 5.713-21.152-.059L30.645 51.721a15.09 15.09 0 00-13.652-4.014c-4.937 1.055-9.023 4.512-10.854 9.199C2.065 67.292 0 78.322 0 89.689c0 29.81 14.692 57.627 39.287 74.399 21.782 14.854 48.765 19.365 73.916 12.612l42.951 42.951zM472.698 347.586a89.838 89.838 0 00-73.901-12.612l-42.942-42.942-53.177 74.454 32.311 32.311c-6.738 25.107-2.256 52.104 12.612 73.916C364.373 497.308 392.19 512 422 512c11.367 0 22.397-2.065 32.783-6.138 4.688-1.831 8.145-5.918 9.199-10.854a15.02 15.02 0 00-4.014-13.652L432.605 453.7c-5.771-5.771-5.908-15.185 0-21.094 5.654-5.654 15.381-5.713 21.152.059l27.598 27.305a15.015 15.015 0 0013.652 4.014c4.937-1.055 9.023-4.512 10.854-9.199C509.935 444.397 512 433.367 512 422c0-29.824-14.692-57.642-39.302-74.414z"/>
</svg>