<svg xmlns="http://www.w3.org/2000/svg" viewBox="0 0 512 512">
<path d="M190 450a15 15 0 01-9-17l27-132h-42a15 15 0 01-13-8 15 15 0 011-16L304 67c4-5 12-8 18-5a15 15 0 019 17l-27 132h42c6 0 11 3 13 8a15 15 0 01-1 16L208 445a15 15 0 01-18 5zm19-305l-32-32c7-25 2-52-13-74A92 92 0 0057 6c-4 2-8 6-9 11a15 15 0 004 13l27 28c6 6 6 15 0 21-5 6-15 6-21 0L31 52a15 15 0 00-14-4c-5 1-9 4-11 9a90 90 0 00107 120l43 43zm264 203a90 90 0 00-74-13l-43-43-53 74 32 33a90 90 0 00120 107c4-2 8-6 9-11a15 15 0 00-4-14l-27-27c-6-6-6-15 0-21 5-6 15-6 21 0l27 27a15 15 0 0014 4c5-1 9-5 11-9a90 90 0 00-33-107z"/>
</svg>