<svg xmlns="http://www.w3.org/2000/svg" viewBox="0 0 211.737 211.737">
<path d="M201.488 151.989c-6.61-6.61-15.399-10.25-24.748-10.25-4.867 0-9.579.995-13.914 2.874a13.223 13.223 0 00-1.613-1.967l-43.71-43.711 50.386-50.386a12.83 12.83 0 002.331.222h.001c3.719 0 7.311-1.545 10.113-4.348l10.35-10.349a5.543 5.543 0 001.308-2.214c.558-1.829.042-3.715-1.417-5.172l-11.341-11.341c-1.368-1.369-2.8-1.656-3.76-1.656-2.061 0-3.449 1.286-3.706 1.543l-10.313 10.31c-3.563 3.565-4.952 8.189-4.146 12.469l-50.364 50.363-39.709-39.71a34.933 34.933 0 002.765-13.669c0-9.349-3.642-18.138-10.253-24.748C53.137 3.641 44.349 0 35.002 0c-3.12 0-6.225.415-9.229 1.233a3.965 3.965 0 00-2.743 2.761c-.358 1.348.046 2.73 1.1 3.784 0 0 12.342 12.437 16.472 16.566.433.432.431 1.465.37 1.836l-.039.272c-.445 4.858-1.333 10.76-2.019 12.475-1.728.706-7.727 1.606-12.665 2.048l-.208.027a1.61 1.61 0 01-.197.01c-.498 0-1.231-.14-1.897-.806C19.647 35.91 7.79 24.139 7.79 24.139c-1.063-1.063-2.155-1.286-2.884-1.286-1.692 0-3.209 1.223-3.691 2.982-3.264 12.081.198 25.075 9.035 33.912 6.61 6.61 15.399 10.251 24.749 10.251 4.774 0 9.401-.955 13.668-2.765l39.71 39.71-21.83 21.83a13.803 13.803 0 00-5.99-1.368c-3.702 0-7.174 1.434-9.776 4.036l-4.945 4.945-.032.036c-.274-.016-.547-.04-.824-.04-3.702 0-7.174 1.434-9.776 4.036L7.815 167.805c-5.391 5.391-5.391 14.163 0 19.554l10.705 10.705c2.603 2.604 6.074 4.037 9.776 4.037s7.174-1.434 9.776-4.036l27.387-27.386c2.907-2.907 4.231-6.795 4.004-10.608l.027-.024 4.945-4.945c4.26-4.259 5.14-10.623 2.669-15.768l21.83-21.831 43.711 43.71a13.244 13.244 0 001.98 1.63c-5.515 12.787-3.066 28.214 7.364 38.645 6.609 6.609 15.398 10.249 24.747 10.249h.002c3.118 0 6.223-.414 9.229-1.233a3.966 3.966 0 002.742-2.763c.356-1.347-.047-2.729-1.101-3.781 0 0-12.342-12.438-16.473-16.568-.433-.432-.431-1.465-.37-1.837l.038-.27c.446-4.859 1.336-10.762 2.021-12.475 1.727-.707 7.725-1.606 12.665-2.047l.208-.027a2.633 2.633 0 012.094.795 10448.83 10448.83 0 0016.154 16.066c1.064 1.063 2.156 1.287 2.885 1.287 1.697 0 3.214-1.226 3.689-2.981 3.268-12.08-.193-25.075-9.031-33.914z"/>
</svg>