<svg viewBox="0 0 54 56" xmlns="http://www.w3.org/2000/svg">
<path d="M7 56h40a1 1 0 001-1V30a1 1 0 000-1L28 9a1 1 0 00-2 0L6 29a1 1 0 000 1v25a1 1 0 001 1zm20-6a2 2 0 110-4 2 2 0 010 4zm8-7l-2 1a1 1 0 01-1 0 7 7 0 00-10 0 1 1 0 01-1 0l-2-1a1 1 0 010-2c5-4 11-4 16 0a1 1 0 010 2zm-22-7a19 19 0 0128 0 1 1 0 010 1l-2 2a1 1 0 01-1 0 15 15 0 00-22 0 1 1 0 01-1 0l-2-2a1 1 0 010-1zM9 15l4-4V9a1 1 0 00-1-1H8a1 1 0 00-1 1v6a1 1 0 002 0z"/>
<path d="M28 1a1 1 0 00-2 0L1 26a1 1 0 000 1l1 2a1 1 0 002 0L26 6a1 1 0 012 0l22 23a1 1 0 002 0l1-2a1 1 0 000-1z"/>
</svg>