<svg xmlns="http://www.w3.org/2000/svg" viewBox="0 0 512 512">
<path d="M256 0C162 0 85 77 85 171c0 45 29 83 54 117l12 17c8 11 13 23 16 37 6 25 27 42 51 42h76c24 0 45-17 51-42 3-14 8-26 16-37l12-17c25-34 54-72 54-117C427 77 350 0 256 0zm100 275l-13 17c-9 14-16 29-19 45-4 15-16 26-30 26h-76c-14 0-26-11-30-26-3-16-10-31-19-45l-13-17c-24-33-49-66-49-104a150 150 0 01298 0c0 38-25 71-49 104zM309 405H203a11 11 0 000 22h106a11 11 0 000-22zM309 448H203a11 11 0 000 21h106a11 11 0 000-21zM288 491h-64a11 11 0 000 21h64a11 11 0 000-21z"/>
</svg>