<svg xmlns="http://www.w3.org/2000/svg" viewBox="0 0 211.7 211.7">
<path d="M201 152a35 35 0 00-38-7 13 13 0 00-2-2l-43-44 50-50a13 13 0 002 0c4 0 8-2 10-5l11-10a6 6 0 001-2c1-2 0-4-1-5l-12-12-4-1-3 1-11 11c-3 3-4 8-4 12l-50 50-40-39a35 35 0 003-14A35 35 0 0035 0l-9 1a4 4 0 00-3 3l1 4a10132 10132 0 0017 18l-2 13-13 2-2-1L8 24l-3-1c-2 0-3 1-4 3a35 35 0 0048 41l39 40-21 22a14 14 0 00-6-2c-4 0-8 2-10 4l-5 5h-1c-4 0-7 2-10 4L8 168c-6 5-6 14 0 19l11 11c2 3 6 4 9 4s7-1 10-4l27-27c3-3 5-7 4-11l5-5c5-4 6-11 3-16l22-21 44 43a13 13 0 002 2 35 35 0 0032 49l9-1a4 4 0 003-3l-1-4-17-17v-2l2-12 12-2h1a3 3 0 012 1 10449 10449 0 0016 16l3 1c2 0 3-1 4-3 3-12-1-25-10-34z"/>
</svg>